<?xml version="1.0" ?><svg data-name="Layer 1" id="Layer_1" viewBox="0 0 73.65 73.65" xmlns="http://www.w3.org/2000/svg"><path d="M263.67,318.4V281.6c0-4.5,73.66-4.5,73.66,0v36.8C337.33,322.9,263.67,322.9,263.67,318.4Z" fill="#ffe600" transform="translate(-263.67 -263.17)"/><path d="M337.24,281.6H263.76v-4.86a13.58,13.58,0,0,1,13.57-13.57h46.34a13.58,13.58,0,0,1,13.57,13.57Z" fill="#f4002f" transform="translate(-263.67 -263.17)"/><path d="M263.76,318.4h73.48v4.86a13.58,13.58,0,0,1-13.57,13.57H277.33a13.58,13.58,0,0,1-13.57-13.57Z" fill="#f4002f" transform="translate(-263.67 -263.17)"/><path d="M275.84,294.61h0a1.71,1.71,0,0,0-1.34-1.72,1.62,1.62,0,0,0-1.87,1.63s0,.58.41.58h2.33A.48.48,0,0,0,275.84,294.61Z" fill="#f4002f" transform="translate(-263.67 -263.17)"/><path d="M275.73,308.41V297a.54.54,0,0,0-.54-.55h-1.92a.54.54,0,0,0-.53.55v11.38a1.49,1.49,0,0,0-.82,1.34v.13a.29.29,0,0,0,.28.29h4.06a.28.28,0,0,0,.28-.29v-.13A1.5,1.5,0,0,0,275.73,308.41Z" fill="#f4002f" transform="translate(-263.67 -263.17)"/><path d="M295.84,294.61h0a1.71,1.71,0,0,0-1.34-1.72,1.63,1.63,0,0,0-1.88,1.63s0,.58.42.58h2.33A.48.48,0,0,0,295.84,294.61Z" fill="#f4002f" transform="translate(-263.67 -263.17)"/><path d="M295.72,308.41V297a.53.53,0,0,0-.53-.55h-1.92a.54.54,0,0,0-.53.55v11.38a1.49,1.49,0,0,0-.82,1.34v.13a.28.28,0,0,0,.28.29h4.06a.28.28,0,0,0,.28-.29v-.13A1.49,1.49,0,0,0,295.72,308.41Z" fill="#f4002f" transform="translate(-263.67 -263.17)"/><path d="M289.74,295.17h-11a.58.58,0,0,0-.59.58v8.09a6.35,6.35,0,0,0,6.09,6.16h0a6.34,6.34,0,0,0,6.09-6.16v-8.09A.58.58,0,0,0,289.74,295.17Z" fill="#f4002f" transform="translate(-263.67 -263.17)"/><path d="M288.54,289.06a1.62,1.62,0,0,0-1.53.49,4.26,4.26,0,0,1-4.17-.8,1.61,1.61,0,0,0-1.39.8,1.7,1.7,0,0,0-1.53-.49,1.62,1.62,0,0,0-1.26,1.33,1.54,1.54,0,0,0,.89,1.6,1.26,1.26,0,0,1,.69,1.09v.24a.29.29,0,0,0,.29.28h7.38a.28.28,0,0,0,.29-.28l0-.24a1.23,1.23,0,0,1,.68-1.09,1.54,1.54,0,0,0,.89-1.6A1.66,1.66,0,0,0,288.54,289.06Z" fill="#f4002f" transform="translate(-263.67 -263.17)"/></svg>