<?xml version="1.0" ?><svg data-name="Layer 1" id="Layer_1" viewBox="0 0 73.65 73.65" xmlns="http://www.w3.org/2000/svg"><path d="M323.76,263.17h-12.1l-11,8.27-11.35-8.27h-12.1a13.58,13.58,0,0,0-9.25,3.64c-2.65,2.48,4.77,6.71,4.77,10.63l-9.09,2.06v9.34l2.91,11.94-2.91,10.38V321l8.36,1.85c0,4.08-6.55,8-3.69,10.48a13.54,13.54,0,0,0,8.9,3.33h12.3L301,328.16l10.45,8.52h12.28a13.53,13.53,0,0,0,9.16-3.56c2.71-2.48-3.47-8.59-3.47-12.55l7.88.45v-9.86L334.42,300l2.91-11.13V279l-7.88-2.63c0-3.92,6.21-7.06,3.56-9.54A13.58,13.58,0,0,0,323.76,263.17Z" fill="#004cba" transform="translate(-263.67 -263.17)"/><path d="M333,266.82l-32.5,25.41L268,266.82a13.56,13.56,0,0,0-4.33,9.92V279l26.89,21-26.89,21v2.09a13.52,13.52,0,0,0,4.42,10l32.41-25.34,32.41,25.34a13.52,13.52,0,0,0,4.42-10V321l-26.89-21,26.89-21v-2.24A13.56,13.56,0,0,0,333,266.82Z" fill="#fff" transform="translate(-263.67 -263.17)"/><path d="M336.29,271.54a13.52,13.52,0,0,0-1.92-3.24l-28.48,22.26-5.39,1.67-11.26-1.51-24.53-19.18a13.54,13.54,0,0,0-1,4.52l24.59,19.22,2.26,4.72-2.06,9.86-23.74,18.57a13.7,13.7,0,0,0,1.95,3.22l29-22.68,4.79-1.2,11.1,1.39,24.64,19.27a13.27,13.27,0,0,0,1-4.49l-25.21-19.72L310.44,300l1.71-9.59Z" fill="#f4002f" transform="translate(-263.67 -263.17)"/><rect fill="#fff" height="22.32" width="73.65" y="25.67"/><rect fill="#fff" height="73.65" width="22.32" x="25.67"/><rect fill="#f4002f" height="73.65" width="14.51" x="29.57"/><rect fill="#f4002f" height="14.73" width="73.65" y="29.46"/></svg>