<?xml version="1.0" ?><svg data-name="Layer 1" id="Layer_1" viewBox="0 0 73.65 73.65" xmlns="http://www.w3.org/2000/svg"><path d="M263.67,312.58V287.66c0-4.5,73.66-4.5,73.66,0v24.92C337.33,317.08,263.67,317.08,263.67,312.58Z" fill="#005ebc" transform="translate(-263.67 -263.17)"/><path d="M263.67,312.58v10.68a13.58,13.58,0,0,0,13.57,13.57h46.52a13.58,13.58,0,0,0,13.57-13.57V312.58Z" fill="#f4002f" transform="translate(-263.67 -263.17)"/><path d="M323.76,263.17H277.24a13.58,13.58,0,0,0-13.57,13.57v10.92h73.66V276.74A13.58,13.58,0,0,0,323.76,263.17Z" fill="#fff" transform="translate(-263.67 -263.17)"/></svg>