<svg xmlns="http://www.w3.org/2000/svg" xmlns:xlink="http://www.w3.org/1999/xlink" width="500" zoomAndPan="magnify" viewBox="0 0 375 374.999991" height="500" preserveAspectRatio="xMidYMid meet" version="1.0"><defs><g/></defs><g fill="#ff00ff" fill-opacity="1"><g transform="translate(43.544807, 198.374987)"><g><path d="M 3.234375 -3.234375 L 0 -3.234375 L 0 -6.453125 L 6.453125 -6.453125 L 6.453125 -3.234375 L 12.890625 -3.234375 L 12.890625 -9.65625 L 3.234375 -9.65625 L 3.234375 -12.890625 L 0 -12.890625 L 0 -19.34375 L 3.234375 -19.34375 L 3.234375 -22.578125 L 16.125 -22.578125 L 16.125 -19.34375 L 19.34375 -19.34375 L 19.34375 -16.125 L 12.890625 -16.125 L 12.890625 -19.34375 L 6.453125 -19.34375 L 6.453125 -12.890625 L 16.125 -12.890625 L 16.125 -9.65625 L 19.34375 -9.65625 L 19.34375 -3.234375 L 16.125 -3.234375 L 16.125 0 L 3.234375 0 Z M 3.234375 -3.234375 "/></g></g></g><g fill="#ff00ff" fill-opacity="1"><g transform="translate(68.365719, 198.374987)"><g><path d="M 16.125 -19.34375 L 16.125 -16.125 L 12.890625 -16.125 L 12.890625 -9.65625 L 16.125 -9.65625 L 16.125 -6.453125 L 19.34375 -6.453125 L 19.34375 0 L 12.890625 0 L 12.890625 -6.453125 L 9.65625 -6.453125 L 9.65625 -9.65625 L 6.453125 -9.65625 L 6.453125 0 L 0 0 L 0 -22.578125 L 6.453125 -22.578125 L 6.453125 -16.125 L 9.65625 -16.125 L 9.65625 -19.34375 L 12.890625 -19.34375 L 12.890625 -22.578125 L 19.34375 -22.578125 L 19.34375 -19.34375 Z M 16.125 -19.34375 "/></g></g></g><g fill="#ff00ff" fill-opacity="1"><g transform="translate(93.186631, 198.374987)"><g><path d="M 0 -22.578125 L 6.453125 -22.578125 L 6.453125 0 L 0 0 Z M 0 -22.578125 "/></g></g></g><g fill="#ff00ff" fill-opacity="1"><g transform="translate(105.10433, 198.374987)"><g><path d="M 16.125 -3.234375 L 16.125 0 L 0 0 L 0 -22.578125 L 6.421875 -22.578125 L 6.421875 -3.234375 Z M 16.125 -3.234375 "/></g></g></g><g fill="#ff00ff" fill-opacity="1"><g transform="translate(126.699438, 198.374987)"><g><path d="M 16.125 -3.234375 L 16.125 0 L 0 0 L 0 -22.578125 L 6.421875 -22.578125 L 6.421875 -3.234375 Z M 16.125 -3.234375 "/></g></g></g><g fill="#ff00ff" fill-opacity="1"><g transform="translate(148.294541, 198.374987)"><g><path d="M 12.890625 -12.890625 L 12.890625 -9.65625 L 9.65625 -9.65625 L 9.65625 -6.453125 L 6.453125 -6.453125 L 6.453125 -3.234375 L 19.34375 -3.234375 L 19.34375 0 L 0 0 L 0 -6.453125 L 3.234375 -6.453125 L 3.234375 -9.65625 L 6.453125 -9.65625 L 6.453125 -12.890625 L 9.65625 -12.890625 L 9.65625 -16.125 L 12.890625 -16.125 L 12.890625 -19.34375 L 0 -19.34375 L 0 -22.578125 L 19.34375 -22.578125 L 19.34375 -16.125 L 16.125 -16.125 L 16.125 -12.890625 Z M 12.890625 -12.890625 "/></g></g></g><g fill="#ff00ff" fill-opacity="1"><g transform="translate(173.115447, 198.374987)"><g><path d="M 3.234375 -16.125 L 3.234375 -19.34375 L 6.453125 -19.34375 L 6.453125 -22.578125 L 19.34375 -22.578125 L 19.34375 -19.34375 L 22.578125 -19.34375 L 22.578125 -16.125 L 25.78125 -16.125 L 25.78125 -6.453125 L 22.578125 -6.453125 L 22.578125 -3.234375 L 19.34375 -3.234375 L 19.34375 0 L 6.453125 0 L 6.453125 -3.234375 L 3.234375 -3.234375 L 3.234375 -6.453125 L 0 -6.453125 L 0 -16.125 Z M 16.125 -16.125 L 16.125 -19.34375 L 9.65625 -19.34375 L 9.65625 -16.15625 L 6.453125 -16.15625 L 6.453125 -6.421875 L 9.65625 -6.421875 L 9.65625 -3.234375 L 16.125 -3.234375 L 16.125 -6.453125 L 19.34375 -6.453125 L 19.34375 -16.125 Z M 16.125 -16.125 "/></g></g></g><g fill="#ff00ff" fill-opacity="1"><g transform="translate(204.372234, 198.374987)"><g><path d="M 16.125 -12.890625 L 16.125 -22.578125 L 25.78125 -22.578125 L 25.78125 0 L 19.328125 0 L 19.328125 -9.65625 L 16.125 -9.65625 L 16.125 0 L 9.65625 0 L 9.65625 -9.65625 L 6.453125 -9.65625 L 6.453125 0 L 0 0 L 0 -22.578125 L 9.65625 -22.578125 L 9.65625 -12.890625 Z M 16.125 -12.890625 "/></g></g></g><g fill="#ff00ff" fill-opacity="1"><g transform="translate(235.629022, 198.374987)"><g><path d="M 6.453125 -3.234375 L 19.34375 -3.234375 L 19.34375 0 L 0 0 L 0 -22.578125 L 19.34375 -22.578125 L 19.34375 -19.34375 L 6.453125 -19.34375 L 6.453125 -12.890625 L 16.125 -12.890625 L 16.125 -9.65625 L 6.453125 -9.65625 Z M 6.453125 -3.234375 "/></g></g></g><g fill="#ff00ff" fill-opacity="1"><g transform="translate(260.449928, 198.374987)"><g><path d="M 0 -22.578125 L 19.34375 -22.578125 L 19.34375 -19.34375 L 12.90625 -19.34375 L 12.90625 0 L 6.453125 0 L 6.453125 -19.34375 L 0 -19.34375 Z M 0 -22.578125 "/></g></g></g><g fill="#ff00ff" fill-opacity="1"><g transform="translate(285.270834, 198.374987)"><g><path d="M 6.453125 -3.234375 L 19.34375 -3.234375 L 19.34375 0 L 0 0 L 0 -22.578125 L 19.34375 -22.578125 L 19.34375 -19.34375 L 6.453125 -19.34375 L 6.453125 -12.890625 L 16.125 -12.890625 L 16.125 -9.65625 L 6.453125 -9.65625 Z M 6.453125 -3.234375 "/></g></g></g><g fill="#ff00ff" fill-opacity="1"><g transform="translate(310.091739, 198.374987)"><g><path d="M 6.453125 -12.890625 L 12.90625 -12.890625 L 12.90625 -19.34375 L 6.453125 -19.34375 Z M 6.453125 -9.65625 L 6.453125 0 L 0 0 L 0 -22.578125 L 16.125 -22.578125 L 16.125 -19.34375 L 19.34375 -19.34375 L 19.34375 -12.890625 L 16.125 -12.890625 L 16.125 -9.65625 L 19.34375 -9.65625 L 19.34375 0 L 12.890625 0 L 12.890625 -9.65625 Z M 6.453125 -9.65625 "/></g></g></g><g fill="#00ffff" fill-opacity="1"><g transform="translate(42.336224, 198.374987)"><g><path d="M 3.234375 -3.234375 L 0 -3.234375 L 0 -6.453125 L 6.453125 -6.453125 L 6.453125 -3.234375 L 12.890625 -3.234375 L 12.890625 -9.65625 L 3.234375 -9.65625 L 3.234375 -12.890625 L 0 -12.890625 L 0 -19.34375 L 3.234375 -19.34375 L 3.234375 -22.578125 L 16.125 -22.578125 L 16.125 -19.34375 L 19.34375 -19.34375 L 19.34375 -16.125 L 12.890625 -16.125 L 12.890625 -19.34375 L 6.453125 -19.34375 L 6.453125 -12.890625 L 16.125 -12.890625 L 16.125 -9.65625 L 19.34375 -9.65625 L 19.34375 -3.234375 L 16.125 -3.234375 L 16.125 0 L 3.234375 0 Z M 3.234375 -3.234375 "/></g></g></g><g fill="#00ffff" fill-opacity="1"><g transform="translate(67.157135, 198.374987)"><g><path d="M 16.125 -19.34375 L 16.125 -16.125 L 12.890625 -16.125 L 12.890625 -9.65625 L 16.125 -9.65625 L 16.125 -6.453125 L 19.34375 -6.453125 L 19.34375 0 L 12.890625 0 L 12.890625 -6.453125 L 9.65625 -6.453125 L 9.65625 -9.65625 L 6.453125 -9.65625 L 6.453125 0 L 0 0 L 0 -22.578125 L 6.453125 -22.578125 L 6.453125 -16.125 L 9.65625 -16.125 L 9.65625 -19.34375 L 12.890625 -19.34375 L 12.890625 -22.578125 L 19.34375 -22.578125 L 19.34375 -19.34375 Z M 16.125 -19.34375 "/></g></g></g><g fill="#00ffff" fill-opacity="1"><g transform="translate(91.978047, 198.374987)"><g><path d="M 0 -22.578125 L 6.453125 -22.578125 L 6.453125 0 L 0 0 Z M 0 -22.578125 "/></g></g></g><g fill="#00ffff" fill-opacity="1"><g transform="translate(103.895746, 198.374987)"><g><path d="M 16.125 -3.234375 L 16.125 0 L 0 0 L 0 -22.578125 L 6.421875 -22.578125 L 6.421875 -3.234375 Z M 16.125 -3.234375 "/></g></g></g><g fill="#00ffff" fill-opacity="1"><g transform="translate(125.490855, 198.374987)"><g><path d="M 16.125 -3.234375 L 16.125 0 L 0 0 L 0 -22.578125 L 6.421875 -22.578125 L 6.421875 -3.234375 Z M 16.125 -3.234375 "/></g></g></g><g fill="#00ffff" fill-opacity="1"><g transform="translate(147.085957, 198.374987)"><g><path d="M 12.890625 -12.890625 L 12.890625 -9.65625 L 9.65625 -9.65625 L 9.65625 -6.453125 L 6.453125 -6.453125 L 6.453125 -3.234375 L 19.34375 -3.234375 L 19.34375 0 L 0 0 L 0 -6.453125 L 3.234375 -6.453125 L 3.234375 -9.65625 L 6.453125 -9.65625 L 6.453125 -12.890625 L 9.65625 -12.890625 L 9.65625 -16.125 L 12.890625 -16.125 L 12.890625 -19.34375 L 0 -19.34375 L 0 -22.578125 L 19.34375 -22.578125 L 19.34375 -16.125 L 16.125 -16.125 L 16.125 -12.890625 Z M 12.890625 -12.890625 "/></g></g></g><g fill="#00ffff" fill-opacity="1"><g transform="translate(171.906863, 198.374987)"><g><path d="M 3.234375 -16.125 L 3.234375 -19.34375 L 6.453125 -19.34375 L 6.453125 -22.578125 L 19.34375 -22.578125 L 19.34375 -19.34375 L 22.578125 -19.34375 L 22.578125 -16.125 L 25.78125 -16.125 L 25.78125 -6.453125 L 22.578125 -6.453125 L 22.578125 -3.234375 L 19.34375 -3.234375 L 19.34375 0 L 6.453125 0 L 6.453125 -3.234375 L 3.234375 -3.234375 L 3.234375 -6.453125 L 0 -6.453125 L 0 -16.125 Z M 16.125 -16.125 L 16.125 -19.34375 L 9.65625 -19.34375 L 9.65625 -16.15625 L 6.453125 -16.15625 L 6.453125 -6.421875 L 9.65625 -6.421875 L 9.65625 -3.234375 L 16.125 -3.234375 L 16.125 -6.453125 L 19.34375 -6.453125 L 19.34375 -16.125 Z M 16.125 -16.125 "/></g></g></g><g fill="#00ffff" fill-opacity="1"><g transform="translate(203.163651, 198.374987)"><g><path d="M 16.125 -12.890625 L 16.125 -22.578125 L 25.78125 -22.578125 L 25.78125 0 L 19.328125 0 L 19.328125 -9.65625 L 16.125 -9.65625 L 16.125 0 L 9.65625 0 L 9.65625 -9.65625 L 6.453125 -9.65625 L 6.453125 0 L 0 0 L 0 -22.578125 L 9.65625 -22.578125 L 9.65625 -12.890625 Z M 16.125 -12.890625 "/></g></g></g><g fill="#00ffff" fill-opacity="1"><g transform="translate(234.420439, 198.374987)"><g><path d="M 6.453125 -3.234375 L 19.34375 -3.234375 L 19.34375 0 L 0 0 L 0 -22.578125 L 19.34375 -22.578125 L 19.34375 -19.34375 L 6.453125 -19.34375 L 6.453125 -12.890625 L 16.125 -12.890625 L 16.125 -9.65625 L 6.453125 -9.65625 Z M 6.453125 -3.234375 "/></g></g></g><g fill="#00ffff" fill-opacity="1"><g transform="translate(259.241344, 198.374987)"><g><path d="M 0 -22.578125 L 19.34375 -22.578125 L 19.34375 -19.34375 L 12.90625 -19.34375 L 12.90625 0 L 6.453125 0 L 6.453125 -19.34375 L 0 -19.34375 Z M 0 -22.578125 "/></g></g></g><g fill="#00ffff" fill-opacity="1"><g transform="translate(284.06225, 198.374987)"><g><path d="M 6.453125 -3.234375 L 19.34375 -3.234375 L 19.34375 0 L 0 0 L 0 -22.578125 L 19.34375 -22.578125 L 19.34375 -19.34375 L 6.453125 -19.34375 L 6.453125 -12.890625 L 16.125 -12.890625 L 16.125 -9.65625 L 6.453125 -9.65625 Z M 6.453125 -3.234375 "/></g></g></g><g fill="#00ffff" fill-opacity="1"><g transform="translate(308.883156, 198.374987)"><g><path d="M 6.453125 -12.890625 L 12.90625 -12.890625 L 12.90625 -19.34375 L 6.453125 -19.34375 Z M 6.453125 -9.65625 L 6.453125 0 L 0 0 L 0 -22.578125 L 16.125 -22.578125 L 16.125 -19.34375 L 19.34375 -19.34375 L 19.34375 -12.890625 L 16.125 -12.890625 L 16.125 -9.65625 L 19.34375 -9.65625 L 19.34375 0 L 12.890625 0 L 12.890625 -9.65625 Z M 6.453125 -9.65625 "/></g></g></g><g fill="#d3adf7" fill-opacity="1"><g transform="translate(42.940516, 198.374987)"><g><path d="M 3.234375 -3.234375 L 0 -3.234375 L 0 -6.453125 L 6.453125 -6.453125 L 6.453125 -3.234375 L 12.890625 -3.234375 L 12.890625 -9.65625 L 3.234375 -9.65625 L 3.234375 -12.890625 L 0 -12.890625 L 0 -19.34375 L 3.234375 -19.34375 L 3.234375 -22.578125 L 16.125 -22.578125 L 16.125 -19.34375 L 19.34375 -19.34375 L 19.34375 -16.125 L 12.890625 -16.125 L 12.890625 -19.34375 L 6.453125 -19.34375 L 6.453125 -12.890625 L 16.125 -12.890625 L 16.125 -9.65625 L 19.34375 -9.65625 L 19.34375 -3.234375 L 16.125 -3.234375 L 16.125 0 L 3.234375 0 Z M 3.234375 -3.234375 "/></g></g></g><g fill="#d3adf7" fill-opacity="1"><g transform="translate(67.761427, 198.374987)"><g><path d="M 16.125 -19.34375 L 16.125 -16.125 L 12.890625 -16.125 L 12.890625 -9.65625 L 16.125 -9.65625 L 16.125 -6.453125 L 19.34375 -6.453125 L 19.34375 0 L 12.890625 0 L 12.890625 -6.453125 L 9.65625 -6.453125 L 9.65625 -9.65625 L 6.453125 -9.65625 L 6.453125 0 L 0 0 L 0 -22.578125 L 6.453125 -22.578125 L 6.453125 -16.125 L 9.65625 -16.125 L 9.65625 -19.34375 L 12.890625 -19.34375 L 12.890625 -22.578125 L 19.34375 -22.578125 L 19.34375 -19.34375 Z M 16.125 -19.34375 "/></g></g></g><g fill="#d3adf7" fill-opacity="1"><g transform="translate(92.582339, 198.374987)"><g><path d="M 0 -22.578125 L 6.453125 -22.578125 L 6.453125 0 L 0 0 Z M 0 -22.578125 "/></g></g></g><g fill="#d3adf7" fill-opacity="1"><g transform="translate(104.500038, 198.374987)"><g><path d="M 16.125 -3.234375 L 16.125 0 L 0 0 L 0 -22.578125 L 6.421875 -22.578125 L 6.421875 -3.234375 Z M 16.125 -3.234375 "/></g></g></g><g fill="#d3adf7" fill-opacity="1"><g transform="translate(126.095146, 198.374987)"><g><path d="M 16.125 -3.234375 L 16.125 0 L 0 0 L 0 -22.578125 L 6.421875 -22.578125 L 6.421875 -3.234375 Z M 16.125 -3.234375 "/></g></g></g><g fill="#d3adf7" fill-opacity="1"><g transform="translate(147.690249, 198.374987)"><g><path d="M 12.890625 -12.890625 L 12.890625 -9.65625 L 9.65625 -9.65625 L 9.65625 -6.453125 L 6.453125 -6.453125 L 6.453125 -3.234375 L 19.34375 -3.234375 L 19.34375 0 L 0 0 L 0 -6.453125 L 3.234375 -6.453125 L 3.234375 -9.65625 L 6.453125 -9.65625 L 6.453125 -12.890625 L 9.65625 -12.890625 L 9.65625 -16.125 L 12.890625 -16.125 L 12.890625 -19.34375 L 0 -19.34375 L 0 -22.578125 L 19.34375 -22.578125 L 19.34375 -16.125 L 16.125 -16.125 L 16.125 -12.890625 Z M 12.890625 -12.890625 "/></g></g></g><g fill="#d3adf7" fill-opacity="1"><g transform="translate(172.511155, 198.374987)"><g><path d="M 3.234375 -16.125 L 3.234375 -19.34375 L 6.453125 -19.34375 L 6.453125 -22.578125 L 19.34375 -22.578125 L 19.34375 -19.34375 L 22.578125 -19.34375 L 22.578125 -16.125 L 25.78125 -16.125 L 25.78125 -6.453125 L 22.578125 -6.453125 L 22.578125 -3.234375 L 19.34375 -3.234375 L 19.34375 0 L 6.453125 0 L 6.453125 -3.234375 L 3.234375 -3.234375 L 3.234375 -6.453125 L 0 -6.453125 L 0 -16.125 Z M 16.125 -16.125 L 16.125 -19.34375 L 9.65625 -19.34375 L 9.65625 -16.15625 L 6.453125 -16.15625 L 6.453125 -6.421875 L 9.65625 -6.421875 L 9.65625 -3.234375 L 16.125 -3.234375 L 16.125 -6.453125 L 19.34375 -6.453125 L 19.34375 -16.125 Z M 16.125 -16.125 "/></g></g></g><g fill="#d3adf7" fill-opacity="1"><g transform="translate(203.767943, 198.374987)"><g><path d="M 16.125 -12.890625 L 16.125 -22.578125 L 25.78125 -22.578125 L 25.78125 0 L 19.328125 0 L 19.328125 -9.65625 L 16.125 -9.65625 L 16.125 0 L 9.65625 0 L 9.65625 -9.65625 L 6.453125 -9.65625 L 6.453125 0 L 0 0 L 0 -22.578125 L 9.65625 -22.578125 L 9.65625 -12.890625 Z M 16.125 -12.890625 "/></g></g></g><g fill="#d3adf7" fill-opacity="1"><g transform="translate(235.024731, 198.374987)"><g><path d="M 6.453125 -3.234375 L 19.34375 -3.234375 L 19.34375 0 L 0 0 L 0 -22.578125 L 19.34375 -22.578125 L 19.34375 -19.34375 L 6.453125 -19.34375 L 6.453125 -12.890625 L 16.125 -12.890625 L 16.125 -9.65625 L 6.453125 -9.65625 Z M 6.453125 -3.234375 "/></g></g></g><g fill="#d3adf7" fill-opacity="1"><g transform="translate(259.845636, 198.374987)"><g><path d="M 0 -22.578125 L 19.34375 -22.578125 L 19.34375 -19.34375 L 12.90625 -19.34375 L 12.90625 0 L 6.453125 0 L 6.453125 -19.34375 L 0 -19.34375 Z M 0 -22.578125 "/></g></g></g><g fill="#d3adf7" fill-opacity="1"><g transform="translate(284.666542, 198.374987)"><g><path d="M 6.453125 -3.234375 L 19.34375 -3.234375 L 19.34375 0 L 0 0 L 0 -22.578125 L 19.34375 -22.578125 L 19.34375 -19.34375 L 6.453125 -19.34375 L 6.453125 -12.890625 L 16.125 -12.890625 L 16.125 -9.65625 L 6.453125 -9.65625 Z M 6.453125 -3.234375 "/></g></g></g><g fill="#d3adf7" fill-opacity="1"><g transform="translate(309.487447, 198.374987)"><g><path d="M 6.453125 -12.890625 L 12.90625 -12.890625 L 12.90625 -19.34375 L 6.453125 -19.34375 Z M 6.453125 -9.65625 L 6.453125 0 L 0 0 L 0 -22.578125 L 16.125 -22.578125 L 16.125 -19.34375 L 19.34375 -19.34375 L 19.34375 -12.890625 L 16.125 -12.890625 L 16.125 -9.65625 L 19.34375 -9.65625 L 19.34375 0 L 12.890625 0 L 12.890625 -9.65625 Z M 6.453125 -9.65625 "/></g></g></g></svg>